<?xml version="1.0" encoding="UTF-8"?>
<svg id="Layer_2" data-name="Layer 2" xmlns="http://www.w3.org/2000/svg" viewBox="0 0 348.44 255.63">
  <defs>
    <style>
      .cls-1 {
        fill: #fff;
        stroke-width: 0px;
      }
    </style>
  </defs>
  <g id="Layer_2-2" data-name="Layer 2">
    <path class="cls-1" d="m333.51,216.14c11.35-6.22,13.69-21.27,7.93-32.17-6.69-12.67-23.17-15.64-35.8-11.21-14.77,5.17-23.71,18.54-29.3,32.47-4.25,10.6-6.77,27.85,7.45,32.01,2.43.71,5.52-.45,6.72-2.74,6.02-11.41,9.25-24.4,6.44-37.22-2.4-10.97-10.07-20.85-20.33-25.51-22.33-10.15-40.97,8.85-48.96,28.04-3.98,9.56-6.8,21.15-2.97,31.22,4.16,10.92,15.52,15.81,26.65,13.59,11.82-2.36,20.12-12.15,26.54-21.66,7.06-10.45,12.36-22.07,16.31-34.03,8.09-24.53,10.96-51.3,10.66-77.05-.3-25.6-4.64-52.63-17.69-75.04-11.01-18.91-31.26-36.27-54.56-31.93-11.78,2.19-21.68,10.04-29.68,18.58-8.66,9.25-16.34,19.62-23.18,30.26-26.16,40.68-51.31,107.03-13.82,148.81,1.85,2.06,4.92,2.06,7.21.93,27.75-13.65,37.19-49.79,42.15-77.67,3.11-17.49,4.33-35.32,3.41-53.07-.84-16.03-2.82-32.74-10.51-47.1-6.92-12.93-19.43-23.39-34.24-25.36-15-2-28.12,6.2-37.53,17.24-20.26,23.77-32.76,55.62-37.85,86.18-2.93,17.61-3.64,35.55-1.63,53.3,1.62,14.3,5.22,31.89,20.01,38.2,3.83,1.64,7.17.32,8.75-3.56,6.17-15.21,7.33-32.16,3.65-48.15-3.39-14.75-11.36-31.62-26.08-37.92-16.17-6.92-27.76,6.41-34.67,19.49-7.42,14.04-10.92,30.29-9.66,46.15.98,12.44,4.43,32.53,19.25,35.64,15.72,3.3,24.4-17.49,25.13-29.83.85-14.22-5.38-29.3-16.11-38.67s-26.78-13.07-39-3.56c-11.38,8.87-15.92,25.4-14.68,39.32s9.28,31.01,25.58,31.12c2.95.02,6.32-2.76,5.95-5.95-1.96-16.96-21.67-24.77-36.28-17.55-17.8,8.79-17.32,33.7-8.14,48.4l5.14-8.96c-9.86.55-22.92,3.48-25.43,14.74-1.28,5.73,1.26,11.4,5.62,15.09,5.5,4.65,12.65,5.36,19.51,4.03,7.45-1.44,14.69-4.68,21.82-7.2,7.98-2.82,15.96-5.64,23.94-8.46,14.11-4.98,28.16-10.37,42.5-14.65,13.68-4.07,28.59-7.32,42.81-4.16,14.05,3.12,24.38,13.43,37.24,19.19,23.24,10.4,50.98,9.4,73.36-2.8,6.5-3.54,12.6-10.66,20.5-9.6,8.47,1.14,16.53,4.06,25.15,4.57,13.65.81,28.84-4.3,35.02-17.42,3.25-6.89-7.01-12.94-10.28-6.01-5.15,10.92-17.91,12.6-28.7,11.15-12.56-1.69-24.38-7.88-36.23-.42-9.91,6.24-18.66,11.83-30.33,14.31s-22.79,1.99-33.7-1.02-20.26-9.79-30.22-15.72c-10.8-6.43-22.76-9.57-35.34-9.31-25.88.54-50.93,11.93-74.95,20.42-7.37,2.6-14.73,5.2-22.1,7.81-7.16,2.53-14.44,5.77-21.85,7.45-2.7.61-15.32.74-11.74-5.7,2.07-3.72,9.81-4.17,13.4-4.37,4.32-.24,7.66-4.93,5.14-8.96-5.5-8.81-8.02-24.12,1.97-31.05,5.86-4.06,19.26-2.39,20.26,6.21l5.95-5.95c-9.07-.06-12.92-11.78-13.67-19.21-.89-8.83.96-18.96,6.37-26.18,6.04-8.05,15.61-8.75,23.86-3.48s14.22,15.57,15.55,25.63c.62,4.71.26,9.53-1.19,14.05-1.05,3.24-4.86,11.49-9.25,11.14-3.73-.3-6.04-6.33-7.01-9.25-1.91-5.78-2.87-11.92-3.1-18-.44-11.41,1.69-22.98,6.45-33.39,3.77-8.22,11-23.14,22.15-17.88,11.29,5.33,16.6,20.17,18.95,31.49,2.81,13.52,1.16,27.48-4,40.22l8.75-3.56c-10.97-4.68-13.06-18.16-14.21-28.75-1.5-13.87-1.42-27.92.22-41.77,3.22-27.21,12.74-53.73,27.5-76.8,6.6-10.32,15.21-22.49,27.96-25.27s24.89,5.55,31.39,15.72c7.4,11.57,9.57,25.61,10.61,39.06,1.22,15.69.84,31.57-1.29,47.18s-6.07,32.97-12.4,48.22c-5.26,12.65-13,24.49-25.6,30.69l7.21.93c-26.49-29.52-13.91-75.98,1-107.82,9.19-19.62,21.15-38.56,36-54.41,6.47-6.91,14.11-13.5,23.67-15.37,8.77-1.71,17.44,1.49,24.53,6.54,16.8,11.97,25.11,32.88,29.47,52.31,4.79,21.32,4.71,43.53,2.69,65.19-1.97,21.11-6.29,42.59-15.66,61.75-4.42,9.04-9.85,18.71-17.49,25.44-5.84,5.16-17.36,9.11-22.13.38-4.35-7.96,0-19.59,3.61-27.01,4.03-8.27,10.13-17.16,19.5-19.71,9.86-2.67,19.35,3.99,23.72,12.53,5.59,10.92,2.4,24.23-3.02,34.52l6.72-2.74c-5.95-1.74.18-15.87,1.52-18.9,3.9-8.88,9.79-18.09,19.02-22.11,7.14-3.11,17.87-3.41,22.79,3.73,3.71,5.38,3.32,14.04-2.78,17.38-6.72,3.68-.72,13.97,6.01,10.28h0Z"/>
  </g>
</svg>