<?xml version="1.0" encoding="UTF-8"?>
<svg id="Layer_2" data-name="Layer 2" xmlns="http://www.w3.org/2000/svg" viewBox="0 0 353.05 175.64">
  <defs>
    <style>
      .cls-1 {
        fill: #fff;
        stroke-width: 0px;
      }
    </style>
  </defs>
  <g id="Layer_2-2" data-name="Layer 2">
    <path class="cls-1" d="m128.26,139.12c-7.47-30.44-10.02-61.71-7.74-92.97l-10.16,4.21c17.63,15.87,26.85,38.86,25.17,62.52l11.69-1.58c-4.13-13.56-4.78-27.9-1.5-41.73,1.7-7.15,4.29-14.08,7.97-20.45,2.81-4.86,7.2-11.28,13.42-11.59,11.08-.54,14.61,16.87,14.9,25.03.37,10.35-2.28,21.74-12.48,26.38l8.75,3.56c-1.68-11.53.8-23.62,6.38-33.79,2.72-4.96,6.1-9.43,10.18-13.34,3.62-3.48,10.22-9.89,15.59-6.89,8.45,4.73,9.73,19.02,8.12,27.38-1.93,10.01-7.63,18.84-16.55,23.92h6.01c-4-2.24.3-11.17,1.53-14.01,2.49-5.73,5.67-11.2,9.33-16.26,7.3-10.11,18.39-21.26,30.58-25.07,11.82-3.69,21.76,5.72,22.16,17.5.43,12.59-10.09,22.43-20.4,27.75l8.15,8.15c7.8-13.59,20.97-23.38,36.37-26.54,7.67-1.57,17.23-.98,20.28,7.55,2.56,7.15-2.67,14.76-10.16,15.41l3,11.09c8.36-5.33,27.82-16.1,31.61.19,2.92,12.56-3.87,26.08-12.62,34.69-9.35,9.2-23.44,15.32-36.68,12.74-11.79-2.3-21.61-12.29-21.15-24.68l-11.09,3c4.37,5.77,3.69,13.34-.95,18.82-4.97,5.87-13.24,8.42-20.67,8.89-15.89,1-30.92-6.03-40.92-18.27-3.12-3.81-10.76-.82-10.16,4.21,1.09,9.16.61,20.04-7.43,26.1-6.21,4.67-17.47,3.14-17.13-6.37.25-6.84-9.8-7.9-11.69-1.58-3.03,10.1-16.9,13.27-25.39,8.23-11.43-6.78-12.16-22.62-7.64-33.68,2.9-7.09-8.62-10.17-11.48-3.17-6.81,16.65-2.29,39.98,15.2,48.21,15.23,7.16,35.77.33,40.79-16.43l-11.69-1.58c-.56,15.5,16.27,24.88,29.88,19.4,15.67-6.3,20.33-23.73,18.5-39.13l-10.16,4.21c13.53,16.54,35.91,24.84,56.93,20.78,9.89-1.91,19.72-7.26,25-16.1s5.5-20.38-.69-28.56c-3.45-4.55-10.86-3.32-11.09,3-.49,13.24,7.39,25.52,18.76,31.98,12.94,7.35,28.82,6.15,42.05.25,12.82-5.72,23.73-16.28,29.46-29.14,5.26-11.8,7.9-29.59-2.14-39.76-12.62-12.79-30.87-4.52-43.39,3.46-4.6,2.94-3.24,11.64,3,11.09,11.73-1.02,22.01-9.76,22.72-21.99s-7.97-22.71-19.72-24.89c-23.66-4.39-48.48,12.86-59.77,32.53-3.06,5.34,2.96,10.83,8.15,8.15,11.54-5.96,21.75-16,25.15-28.86,3.1-11.75-.63-25.25-10.06-33.16-23.73-19.91-54.51,10.7-66.78,30.09-5.98,9.44-14.57,24.4-9.35,35.8,1.14,2.49,2.93,4.55,5.31,5.93,3.41,1.97,6.26.64,9.27-1.39,4.77-3.21,8.77-7.29,12.02-12.03,6.68-9.74,9.41-22.1,7.73-33.75s-8.7-25.93-21.69-26.83c-14.42-1-27.72,15.02-34.08,26.29-7.53,13.35-10.14,28.51-7.94,43.61.61,4.17,5.69,4.95,8.75,3.56,21.84-9.93,22.87-43.61,11.36-61.57-6.98-10.89-20.19-15.89-31.59-8.12s-17.38,22.52-20.67,35.24c-4.21,16.3-3.81,33.6,1.09,49.69,2.01,6.6,11.22,5.05,11.69-1.58,1.88-26.52-8.91-53.15-28.66-70.93-3.97-3.58-9.78-.98-10.16,4.21-2.36,32.27.45,64.72,8.17,96.13,1.83,7.44,13.31,4.29,11.48-3.17h0Z"/>
    <path class="cls-1" d="m86.51,47.02c15.31,4.24,12.27-24.28,6.52-31.08-4.59-5.43-12.05-7.02-18.68-4.72-7.43,2.58-11.96,9.59-13.59,16.98h11.48C69.36,6.95,43.64-7.83,24.58,4.47c-7.94,5.12-13.8,14.94-10.2,24.43,1.61,4.24,5.3,8.08,10.09,8.28,5.62.23,9.57-4.08,9.84-9.41.1-2.05-1.2-4.14-2.95-5.14C16.54,14.12,2.23,35.33.33,47.77c-1.09,7.14.52,14.4,4.95,20.16,2.1,2.73,4.72,4.99,7.85,6.48.88.39,1.77.75,2.68,1.08-1.18-4.51-2.09-5.24-2.7-2.18-1.22,1.71-1.73,4.84-2.44,6.84-.8,2.25.49,5.7,2.74,6.72,12.38,5.64,26.86,4.85,37.95-3.39l-8.96-5.14c.54,16.15,22.41,13.39,31.97,8.11,6.5-3.59,10.78-9.64,14.18-16.07,4.21-7.94,7.7-16.27,10.66-24.74,2.53-7.25-8.96-10.36-11.48-3.17-3.36,9.61-7.22,20.27-13.44,28.46-2.93,3.86-6.85,6.19-11.55,7.31-1.82.43-3.84.85-5.72.63-.73-.08-1.61-.23-2.27-.57-.93-.49-.47-.62-.44.03-.14-4.08-5.12-7.99-8.96-5.14-7.48,5.56-17.25,7.35-25.93,3.39l2.74,6.72c1.68-4.71,5.5-11.02,2.13-15.77-3.01-4.24-8.45-3.9-10.98-9.09-2.33-4.79-1.62-10.15.68-14.82,1.31-2.66,7.49-12.96,11.37-10.74l-2.95-5.14c3.02-.41,4.09-1.35,3.21-2.82-.18-.29-.29-.61-.33-.96.07-.92-.11-1.79.14-2.73.55-2.06,2-3.89,3.58-5.29,3.53-3.14,8.4-4.15,13.01-3.75,10.45.91,17.4,9.16,18.75,19.15.8,5.91,10.29,5.44,11.48,0,.96-4.38,6.17-13.38,11.57-7.94,1.57,1.58,1.84,4.35,1.97,6.43.07,1.14.04,2.29,0,3.43-.04.89-.76,3.59.21,3.11l4.59-.6-.91-.25c-7.4-2.05-10.55,9.44-3.17,11.48h0Z"/>
  </g>
</svg>